#!OML:ASF F:\VICON\USERDATA\INSTALL\rory3\rory3.ASF
:FULLY-SPECIFIED
:DEGREES
948
root -1.99313 17.0866 0.189929 35.8592 4.82757 364.458
lowerback -8.74223 -5.97648 4.11331
upperback -17.6932 -8.53274 -1.58262
thorax -15.86 -5.02207 -3.52893
lowerneck -12.6078 -9.09433 -10.5123
upperneck 15.9761 -13.2378 14.114
head 8.74105 -5.72597 4.84881
rclavicle -1.49089e-014 -2.94201e-014
rhumerus -39.6323 -14.5263 -33.5257
rradius 27.0855
rwrist -7.02475
rhand -25.8099 27.9316
rfingers 7.12502
rthumb 0.729364 -2.04688
lclavicle -1.49089e-014 -2.94201e-014
lhumerus 3.27523 -8.22641 33.6542
lradius 52.5707
lwrist -12.3327
lhand -13.3587 12.9024
lfingers 7.12502
lthumb 12.7474 42.4933
rfemur -55.3179 6.17591 16.5482
rtibia 24.8767
rfoot -51.4165 -40.2275
rtoes 42.6631
lfemur 0.205187 -0.0597185 -18.6119
ltibia 9.54166e-015
lfoot -45.6508 36.7124
ltoes 48.1417
949
root -1.99066 17.0823 0.196399 35.9205 4.71323 364.506
lowerback -8.69952 -5.92528 4.12839
upperback -17.6555 -8.45132 -1.50656
thorax -15.8095 -4.97398 -3.45626
lowerneck -12.7336 -9.34475 -10.8011
upperneck 16.3067 -13.5332 13.9629
head 8.9243 -5.88033 4.79588
rclavicle -5.79457e-014 -3.81667e-014
rhumerus -40.0714 -15.0937 -34.7788
rradius 26.6622
rwrist -6.68914
rhand -25.4563 27.4588
rfingers 7.12502
rthumb 1.07086 -2.51827
lclavicle -5.79457e-014 -3.81667e-014
lhumerus 0.38884 -9.30327 35.0075
lradius 52.7637
lwrist -11.2075
lhand -11.7745 13.6005
lfingers 7.12502
lthumb 14.2743 43.0899
rfemur -55.3928 6.22213 16.4434
rtibia 24.908
rfoot -51.3828 -40.3261
rtoes 42.2052
lfemur 0.182107 0.037874 -18.7259
ltibia -9.54166e-015
lfoot -45.695 36.6073
ltoes 48.2046
950
root -1.98712 17.0783 0.210135 36.0174 4.56452 364.554
lowerback -8.75888 -5.91245 4.09048
upperback -17.6662 -8.41811 -1.35308
thorax -15.7399 -4.93647 -3.27383
lowerneck -12.4407 -9.49434 -11.2026
upperneck 16.3805 -13.6762 13.8659
head 8.9361 -5.99172 4.81589
rclavicle -3.47873e-015 -2.06736e-014
rhumerus -40.3815 -16.1371 -35.5999
rradius 25.8919
rwrist -5.18373
rhand -24.8956 27.4859
rfingers 7.12502
rthumb 1.61241 -2.48772
lclavicle -3.47873e-015 -2.06736e-014
lhumerus -2.93781 -10.8706 36.2373
lradius 53.4703
lwrist -9.80529
lhand -10.2812 14.5254
lfingers 7.12502
lthumb 15.7129 43.9075
rfemur -55.4732 6.28685 16.3064
rtibia 24.9294
rfoot -51.1175 -40.4683
rtoes 41.973
lfemur 0.14845 0.159937 -18.8762
ltibia 1.27222e-014
lfoot -45.6416 36.4154
ltoes 48.3889
951
root -1.98692 17.0779 0.213959 36.1718 4.48105 364.568
lowerback -8.77576 -5.91089 4.12663
upperback -17.5554 -8.39922 -1.21803
thorax -15.555 -4.91416 -3.15488
lowerneck -12.6515 -9.69409 -11.4647
upperneck 16.3146 -13.8719 13.8607
head 8.999 -6.09027 4.81593
rclavicle -1.19122e-013 -9.70069e-014
rhumerus -40.512 -17.7077 -36.3928
rradius 25.0337
rwrist -3.22845
rhand -24.449 27.5441
rfingers 7.12502
rthumb 2.04372 -2.42584
lclavicle -1.19122e-013 -9.70069e-014
lhumerus -5.10685 -10.7621 37.986
lradius 52.6651
lwrist -9.94271
lhand -8.96418 14.811
lfingers 7.12502
lthumb 16.9809 44.0887
rfemur -55.6188 6.32246 16.2342
rtibia 24.9074
rfoot -51.0754 -40.3805
rtoes 42.0457
lfemur -0.0147948 0.257269 -18.9446
ltibia 1.59028e-014
lfoot -45.5654 36.632
ltoes 48.2374
952
root -1.9874 17.0787 0.212326 36.1964 4.54225 364.459
lowerback -8.62282 -5.89789 4.3646
upperback -17.3681 -8.36357 -1.11809
thorax -15.4199 -4.91156 -3.16889
lowerneck -12.9415 -9.95476 -11.599
upperneck 16.1554 -14.1584 13.8543
head 9.04835 -6.22168 4.77571
rclavicle 2.74323e-014 3.65764e-014
rhumerus -40.6824 -19.6251 -37.0946
rradius 24.0846
rwrist -1.23285
rhand -23.8932 27.689
rfingers 7.12502
rthumb 2.58053 -2.27515
lclavicle 2.74323e-014 3.65764e-014
lhumerus -6.38781 -9.41829 40.0088
lradius 50.5203
lwrist -11.3621
lhand -8.44837 14.0806
lfingers 7.12502
lthumb 17.4774 43.315
rfemur -55.635 6.33963 16.3701
rtibia 24.8453
rfoot -51.1655 -40.3073
rtoes 42.2132
lfemur -0.0654999 0.311526 -18.8067
ltibia -1.27222e-014
lfoot -45.2887 37.1587
ltoes 47.9549
953
root -1.98485 17.0786 0.216955 36.1988 4.7316 364.275
lowerback -8.47856 -5.8702 4.77561
upperback -17.2737 -8.31235 -1.03919
thorax -15.4421 -4.93119 -3.29217
lowerneck -12.8822 -10.1715 -11.5693
upperneck 16.165 -14.4179 13.5896
head 9.0517 -6.36626 4.63957
rclavicle 5.80948e-014 7.63333e-014
rhumerus -41.0517 -21.4442 -37.6536
rradius 23.0356
rwrist 0.785177
rhand -23.7633 27.6209
rfingers 7.12502
rthumb 2.70597 -2.34172
lclavicle 5.80948e-014 7.63333e-014
lhumerus -8.00963 -8.83746 41.7822
lradius 48.9734
lwrist -12.3209
lhand -7.75499 14.1009
lfingers 7.12502
lthumb 18.1446 43.2746
rfemur -55.5567 6.30934 16.646
rtibia 24.7313
rfoot -51.1832 -40.3393
rtoes 42.1964
lfemur -0.077341 0.303698 -18.539
ltibia -4.13472e-014
lfoot -45.3174 37.1612
ltoes 48.0089
954
root -1.98086 17.0784 0.230196 36.1899 4.94736 364.067
lowerback -8.29081 -5.86425 5.22212
upperback -17.2506 -8.28476 -0.907844
thorax -15.5867 -4.96479 -3.36255
lowerneck -12.6689 -10.331 -11.4286
upperneck 16.1985 -14.5902 13.1133
head 8.99478 -6.48881 4.43492
rclavicle 3.74709e-014 3.81667e-014
rhumerus -41.4076 -22.2794 -38.658
rradius 22.3568
rwrist 2.21279
rhand -24.0532 26.9043
rfingers 7.12502
rthumb 2.42598 -3.06165
lclavicle 3.74709e-014 3.81667e-014
lhumerus -10.3373 -8.61434 43.4169
lradius 48.3353
lwrist -13.2048
lhand -6.06316 15.8016
lfingers 7.12502
lthumb 19.7716 44.816
rfemur -55.4223 6.27437 16.9611
rtibia 24.6299
rfoot -51.1862 -40.3074
rtoes 42.1803
lfemur -0.0449143 0.285455 -18.2414
ltibia -1.59028e-014
lfoot -45.2763 36.1395
ltoes 48.7744
